<svg width="458" height="100" viewBox="0 0 458 100" fill="none" xmlns="http://www.w3.org/2000/svg">
<path d="M84.9721 4.66646C83.4462 5.21161 79.3887 6.38725 75.9554 7.2792C56.7299 12.2716 54.6685 13.1227 48.6142 18.5625L44.9569 21.848L47.809 24.8367C49.3779 26.4805 51.6722 29.8298 52.9075 32.2795L55.1534 36.7345L57.7099 33.5821C60.0577 30.6864 65.9151 25.6627 66.9436 25.6627C67.7101 25.6627 72.3876 22.0311 75.7661 18.8129C77.5694 17.0948 79.2243 15.8693 79.4442 16.0884C80.119 16.764 72.3162 24.7077 67.3917 28.358C59.7948 33.9899 56.1882 39.891 56.1882 46.6881C56.1882 52.7022 55.2137 57.42 53.0566 61.8472C51.3192 65.4129 49.9327 72.1331 50.9343 72.1331C51.2027 72.1331 54.233 69.6493 57.6683 66.6142C61.1043 63.5784 66.5129 59.679 69.6875 57.9485C76.9188 54.0062 82.9149 49.5277 85.8494 45.8759L88.1147 43.0572L87.9302 23.3656L87.7464 3.67463L84.9721 4.66646Z" fill="#8DD9EB"/>
<path d="M85.0421 49.9341C81.9362 54.0083 78.7818 56.3332 71.454 59.9488C68.5965 61.3589 65.2416 63.2884 63.998 64.2366L61.7369 65.9615V75.368V84.7751L68.8462 84.4838C76.9833 84.1509 81.3501 82.4432 85.1607 78.1021C87.8955 74.9879 88.2167 72.6845 87.9545 58.0456L87.7464 46.3857L85.0421 49.9341Z" fill="#8DD9EB"/>
<path d="M8.2405 50.4099C12.0372 53.6615 15.965 56.1188 22.1407 59.1082C26.8758 61.3991 33.3317 64.7991 36.4875 66.6634C39.6434 68.5271 42.4018 70.0523 42.6175 70.0523C43.3145 70.0523 43.0156 66.3486 41.9558 61.8513C39.4804 51.3511 34.4983 45.1435 21.8556 36.8052C17.6594 34.0378 13.5083 31.1102 12.6316 30.2994C10.2866 28.1312 6.10286 21.5935 6.4337 20.6134C6.59115 20.148 7.21122 20.7133 7.81117 21.8695C9.46052 25.0461 15.0349 29.904 20.4684 32.8996C37.041 42.0383 43.5899 50.3752 44.8508 63.9397C45.0922 66.5386 45.4445 68.6651 45.6339 68.6651C46.2581 68.6651 47.87 66.2958 49.9001 62.3951C55.2796 52.0579 54.2947 38.0987 47.5634 29.2833C43.9249 24.5183 41.5237 23.1762 30.6461 19.8283C18.9564 16.2306 10.8525 12.3535 5.20952 7.65859C2.92069 5.75469 0.813568 4.18857 0.52781 4.17886C0.242052 4.16915 0.00761923 12.6184 0.00761923 22.955C0.00761923 24.295 0.00545708 25.5455 0.00343635 26.7143C-0.0148138 37.2697 -0.0215277 41.1528 1.68029 44.0229C2.67072 45.6932 4.23984 47.0204 6.72216 49.12C7.19445 49.5194 7.69979 49.9468 8.2405 50.4099Z" fill="#3A8295"/>
<path fill-rule="evenodd" clip-rule="evenodd" d="M138.725 15.9525V31.905H140.806H142.887V15.9525V0H140.806H138.725V15.9525ZM151.864 2.92902C150.741 4.15806 149.822 5.56257 149.822 6.05016C149.822 7.00801 151.803 7.23203 152.967 6.40528C154.044 5.64095 156.758 1.98019 156.758 1.29354C156.758 -0.131782 153.738 0.877388 151.864 2.92902ZM187.35 1.94343C186.35 3.81126 187.872 5.754 190.089 5.44119C191.457 5.24837 191.784 4.80032 191.784 3.12114C191.784 1.37955 191.481 1.00501 189.924 0.825369C188.649 0.678328 187.839 1.02998 187.35 1.94343ZM128.712 9.78374C124.789 10.7208 121.693 13.3654 120.324 16.9513C117.469 24.4261 123.016 31.905 131.415 31.905C134.311 31.905 134.564 31.7663 134.564 30.171C134.564 28.6396 134.269 28.4371 132.044 28.4371C126.411 28.4371 122.77 23.7352 124.25 18.3738C125.05 15.4767 127.449 13.7344 131.359 13.2128C133.843 12.8813 134.217 12.6046 134.217 11.0974C134.217 9.08599 132.923 8.77735 128.712 9.78374ZM149.916 9.94396C149.34 10.6389 149.149 14.0431 149.284 21.248L149.476 31.5582L151.747 31.7767L154.019 31.9952L153.828 20.6793C153.645 9.80455 153.581 9.3551 152.189 9.15674C151.393 9.04299 150.37 9.39741 149.916 9.94396ZM164.92 10.4447C160.948 12.5421 159.981 15.0508 159.66 24.1022L159.383 31.905H161.885H164.388V23.9905V16.076L166.522 14.2803C169.412 11.8479 172.26 11.9276 174.845 14.5119C176.842 16.5088 176.872 16.6551 176.872 24.2221V31.905H179.01H181.147L180.917 23.2893C180.702 15.2138 180.578 14.5563 178.953 12.8189C175.202 8.80925 169.762 7.88817 164.92 10.4447ZM188.143 9.47579C187.5 9.73519 187.276 12.6829 187.276 20.8652V31.905H189.357H191.438V20.4608C191.438 10.0029 191.333 9.02149 190.224 9.07143C189.557 9.10125 188.62 9.28367 188.143 9.47579ZM206.697 9.6589C202.869 10.4426 200.023 12.2439 198.36 14.9343C197.101 16.9714 196.879 18.1581 197.124 21.5407C197.369 24.9247 197.787 26.0484 199.458 27.8059C202.297 30.7918 204.724 31.905 208.396 31.905C211.3 31.905 211.552 31.7663 211.552 30.171C211.552 28.6035 211.279 28.4371 208.708 28.4371C206.399 28.4371 205.421 27.9939 203.506 26.0789C201.573 24.1459 201.148 23.1956 201.148 20.8076C201.148 18.4196 201.573 17.4694 203.506 15.5364C205.434 13.6089 206.392 13.1782 208.754 13.1782C211.496 13.1782 211.633 13.0804 211.424 11.277C211.183 9.18864 210.364 8.90774 206.697 9.6589ZM220.561 10.5772C216.867 13.0915 215.486 15.4934 215.183 19.9316C214.963 23.1499 215.228 24.5225 216.543 26.9771C219.819 33.0945 227.309 34.4921 232.157 29.8908C234.126 28.0223 234.44 28.0605 234.44 30.171C234.44 31.6491 234.758 31.905 236.598 31.905H238.755L238.498 24.4489C238.209 16.0357 237.148 13.3169 233.086 10.5793C229.847 8.39726 223.766 8.39587 220.561 10.5772ZM221.937 14.4766C218.531 17.8835 218.357 23.1277 221.53 26.8162C222.846 28.3462 223.704 28.668 226.462 28.668C229.34 28.668 230.075 28.3629 231.774 26.461C235.123 22.7136 234.245 15.5766 230.178 13.4729C227.087 11.8742 224.187 12.2273 221.937 14.4766ZM253.167 45.215V55.7505L250.913 53.4333C246.443 48.8376 240.587 47.4864 234.351 49.6109C226.967 52.1272 223.074 57.9998 223.102 66.5844C223.128 74.7084 226.15 80.0164 232.697 83.4372C236.627 85.4909 244.757 85.4805 248.706 83.4177C252.364 81.5069 256.321 77.0936 257.381 73.7429C257.906 72.0811 258.336 64.3039 258.534 52.886L258.85 34.6794H256.009H253.167V45.215ZM268.45 37.7748C266.917 39.4062 266.897 39.5615 267.999 41.2428C268.781 42.4371 269.779 43.0024 271.105 43.0024C274.648 43.0024 275.53 37.7721 272.203 36.4952C270.484 35.8356 270.172 35.9417 268.45 37.7748ZM128.763 49.5672C125.344 50.7858 122.254 53.6899 120.62 57.2209C119.523 59.5882 119.333 61.8069 119.32 72.3502L119.305 84.7057L121.559 84.4879L123.813 84.2708L124.16 71.6621C124.473 60.2706 124.647 58.8641 125.956 57.0968C127.965 54.3849 130.858 53.0788 134.754 53.1232C138.321 53.1642 140.689 54.4854 143.19 57.8327C144.489 59.5687 144.641 60.8956 144.838 72.2218L145.056 84.6988L147.266 84.4852L149.476 84.2708L149.822 71.7863C150.223 57.377 150.771 55.8705 156.391 53.7239C160.681 52.0856 163.962 52.8174 167.302 56.1563L169.936 58.7919L169.947 70.8375C169.953 77.4633 170.221 83.2991 170.543 83.8061C170.875 84.3305 171.994 84.6301 173.133 84.4997L175.138 84.2708L175.33 73.24C175.564 59.7366 174.77 56.1882 170.685 52.4976C164.725 47.1133 155.273 47.2624 149.707 52.8285L147.13 55.4051L144.472 52.748C140.471 48.7467 134.473 47.5315 128.763 49.5672ZM194.58 49.6567C188.67 51.82 184.489 57.927 183.973 65.1507C183.55 71.0511 184.57 74.2603 188.077 78.0653C191.981 82.3004 196.569 84.0614 204.753 84.4664L211.48 84.7994L211.928 83.0141C212.175 82.032 212.172 80.8986 211.923 80.4957C211.657 80.0656 208.807 79.7625 205.031 79.7625C199.631 79.7625 198.098 79.5024 195.535 78.1506C192.162 76.3716 189.357 72.8121 189.357 70.3117V68.695L202.708 68.507L216.06 68.3183L215.889 63.921C215.683 58.6164 214.364 55.616 210.836 52.4283C206.62 48.6198 200.338 47.5489 194.58 49.6567ZM322.202 49.3792C318.321 50.4626 312.483 56.431 311.405 60.417C310.943 62.1274 310.717 65.8089 310.889 68.8122C311.273 75.5074 313.604 79.7299 318.63 82.8379C321.522 84.626 322.658 84.911 326.935 84.9221C332.563 84.9374 334.96 83.9476 338.752 80.0434L341.171 77.5528L341.385 80.9118C341.592 84.162 341.674 84.2778 343.912 84.4928L346.223 84.7141L345.99 72.7018C345.737 59.7283 345.358 58.1871 341.347 53.8626C337.262 49.4597 328.919 47.5059 322.202 49.3792ZM366.671 49.2634C363.101 50.3336 359.984 53.0025 358.234 56.4899C356.592 59.7602 356.511 60.5009 356.511 72.3134V84.7057L358.766 84.4879L361.02 84.2708L361.367 71.7863C361.686 60.2748 361.834 59.1325 363.265 57.1266C366.656 52.3728 373.884 51.6507 378.399 55.6146C381.626 58.4479 382.166 61.0433 382.17 73.7373L382.174 84.7057L384.428 84.4879L386.683 84.2708L387.029 71.7863C387.429 57.377 387.977 55.8705 393.598 53.7239C397.426 52.2618 400.744 52.7792 403.75 55.3087C407.364 58.3508 407.837 60.4142 407.837 73.1513V84.6176H409.843C411.034 84.6176 412.021 84.171 412.271 83.5204C412.94 81.7753 412.751 65.2596 412.01 60.7312C410.892 53.9091 406.401 49.5846 399.597 48.7786C394.562 48.1821 390.118 49.6123 386.99 52.8368L384.418 55.4863L381.72 52.7882C377.925 48.9943 372.112 47.6321 366.671 49.2634ZM433.91 49.6421C429.546 51.2408 426.54 53.993 424.572 58.1871C422.766 62.0393 422.747 62.2529 422.534 80.6739L422.319 99.2718L424.962 99.054L427.604 98.8362L427.796 88.5711L427.988 78.306L430.124 80.4416C433.503 83.8214 436.116 84.8722 441.129 84.8701C453.645 84.8639 461.111 72.8225 456.746 59.6825C455.367 55.53 450.326 50.6277 446.148 49.3758C442.53 48.2917 437.283 48.4061 433.91 49.6421ZM268.587 66.7578L268.773 84.2708L271.027 84.4879L273.281 84.7057V66.9749V49.2447H270.842H268.402L268.587 66.7578ZM295.339 50.215C290.866 51.4198 286.83 54.2448 284.577 57.7481C282.129 61.5573 281.479 69.8519 283.324 73.7394C286.161 79.7175 292.33 83.6827 299.893 84.3888L304.492 84.8181V82.2907V79.7625H300.65C292.45 79.7625 287.151 74.6383 287.154 66.7127C287.156 62.6323 288.822 59.3135 292.244 56.5766C294.446 54.8149 295.705 54.3869 299.526 54.0998L304.146 53.753L304.363 51.4989C304.578 49.2641 304.554 49.2454 301.588 49.2912C299.943 49.3175 297.131 49.733 295.339 50.215ZM196.307 53.4492C192.735 54.9529 189.357 59.815 189.357 63.4535V65.2326L200.281 65.0411L211.205 64.8504L210.977 62.4229C210.694 59.4085 209.006 56.4081 206.575 54.5957C204.43 52.997 198.859 52.3749 196.307 53.4492ZM237.069 53.3979C231.142 55.1853 227.897 60.5599 228.312 67.905C228.765 75.9221 233.388 80.7065 240.682 80.7065C249.293 80.7065 254.363 73.5091 252.852 63.4334C252.194 59.0437 248.134 54.5694 243.827 53.4846C240.361 52.6121 239.706 52.6037 237.069 53.3979ZM324.461 53.3979C316.802 55.7075 313.108 66.2327 317.15 74.2346C321.005 81.8641 331.165 83.2922 337.117 77.0423C346.967 66.6981 337.711 49.4042 324.461 53.3979ZM436.055 53.6809C430.739 55.65 427.992 60.0771 427.966 66.7127C427.948 71.4152 428.783 73.8802 431.29 76.5297C433.998 79.3928 436.764 80.6163 440.528 80.6163C444.469 80.6163 447.43 79.0606 450.335 75.4665C452.067 73.324 452.463 72.1123 452.752 68.0666C453.042 64.0112 452.846 62.7079 451.538 60.0057C448.765 54.2774 441.954 51.4954 436.055 53.6809Z" fill="#010B10"/>
<path d="M0.454289 46.9482C0.187952 47.2153 0.177548 53.2245 0.431401 60.3032C0.808713 70.8042 1.12984 73.6451 2.17785 75.7342C4.92099 81.2024 12.3882 84.5705 22.3106 84.816C25.6128 84.8978 28.4301 84.8084 28.5716 84.6176C28.7138 84.4269 28.6646 80.0656 28.4634 74.9255L28.0979 65.5808L21.0892 62.0941C12.9916 58.0664 10.159 56.0467 4.80794 50.4855C2.68001 48.2737 0.720627 46.6819 0.454289 46.9482Z" fill="#3A8295"/>
</svg>
