<svg width="89" height="82" viewBox="0 0 89 82" fill="none" xmlns="http://www.w3.org/2000/svg">
<path d="M84.9721 0.99183C83.4462 1.53699 79.3887 2.71262 75.9554 3.60457C56.7299 8.59701 54.6685 9.44805 48.6142 14.8878L44.9569 18.1734L47.809 21.162C49.3779 22.8058 51.6722 26.1552 52.9075 28.6049L55.1534 33.0598L57.7099 29.9075C60.0577 27.0118 65.9151 21.9881 66.9436 21.9881C67.7101 21.9881 72.3876 18.3565 75.7661 15.1382C77.5694 13.4202 79.2243 12.1947 79.4442 12.4138C80.119 13.0894 72.3162 21.033 67.3917 24.6834C59.7948 30.3153 56.1882 36.2164 56.1882 43.0135C56.1882 49.0276 55.2137 53.7454 53.0566 58.1725C51.3192 61.7383 49.9327 68.4585 50.9343 68.4585C51.2027 68.4585 54.233 65.9747 57.6683 62.9396C61.1043 59.9037 66.5129 56.0044 69.6875 54.2739C76.9188 50.3315 82.9149 45.853 85.8494 42.2013L88.1147 39.3826L87.9302 19.6909L87.7464 0L84.9721 0.99183Z" fill="#8DD9EB"/>
<path d="M85.0421 46.2595C81.9362 50.3336 78.7818 52.6585 71.454 56.2742C68.5965 57.6843 65.2416 59.6138 63.998 60.562L61.7369 62.2869V71.6933V81.1005L68.8462 80.8092C76.9833 80.4762 81.3501 78.7686 85.1607 74.4275C87.8955 71.3133 88.2167 69.0098 87.9545 54.371L87.7464 42.7111L85.0421 46.2595Z" fill="#8DD9EB"/>
<path d="M8.2405 46.7353C12.0372 49.9868 15.965 52.4442 22.1407 55.4336C26.8758 57.7245 33.3317 61.1245 36.4875 62.9888C39.6434 64.8525 42.4017 66.3777 42.6175 66.3777C43.3145 66.3777 43.0156 62.6739 41.9558 58.1767C39.4804 47.6765 34.4983 41.4689 21.8556 33.1306C17.6594 30.3632 13.5083 27.4355 12.6316 26.6247C10.2866 24.4566 6.10286 17.9188 6.4337 16.9388C6.59115 16.4734 7.21122 17.0387 7.81117 18.1949C9.46052 21.3715 15.0349 26.2294 20.4684 29.225C37.041 38.3637 43.5899 46.7006 44.8508 60.2651C45.0922 62.864 45.4445 64.9905 45.6339 64.9905C46.2581 64.9905 47.87 62.6212 49.9001 58.7205C55.2796 48.3833 54.2947 34.4241 47.5634 25.6086C43.9249 20.8437 41.5237 19.5016 30.6461 16.1536C18.9564 12.556 10.8525 8.67886 5.20952 3.98396C2.92069 2.08007 0.813568 0.513948 0.52781 0.504237C0.242052 0.494527 0.00761925 8.94381 0.00761925 19.2803C0.00761925 20.6204 0.00545709 21.8709 0.00343636 23.0396C-0.0148138 33.595 -0.0215278 37.4782 1.68029 40.3482C2.67072 42.0186 4.23984 43.3457 6.72216 45.4453C7.19445 45.8448 7.69979 46.2722 8.2405 46.7353Z" fill="#3A8295"/>
<path d="M0.454289 43.2736C0.187952 43.5406 0.177548 49.5499 0.431401 56.6286C0.808713 67.1295 1.12984 69.9705 2.17785 72.0596C4.92099 77.5278 12.3882 80.8959 22.3106 81.1414C25.6128 81.2232 28.4301 81.1338 28.5716 80.943C28.7138 80.7523 28.6646 76.391 28.4634 71.2508L28.0979 61.9061L21.0892 58.4195C12.9916 54.3918 10.159 52.3721 4.80794 46.8109C2.68001 44.599 0.720627 43.0073 0.454289 43.2736Z" fill="#3A8295"/>
</svg>
